<?xml version="1.0" encoding="UTF-8"?>
<svg id="Capa_2" data-name="Capa 2" xmlns="http://www.w3.org/2000/svg" viewBox="0 0 1036.3 1887.08">
  <defs>
    <style>
      .cls-1 {
        fill: #f3a24d;
      }

      .cls-1, .cls-2, .cls-3, .cls-4, .cls-5, .cls-6, .cls-7, .cls-8, .cls-9, .cls-10, .cls-11 {
        stroke-width: 0px;
      }

      .cls-2 {
        fill: #f28b20;
      }

      .cls-3 {
        fill: #7ab034;
      }

      .cls-4 {
        fill: #f5aa34;
      }

      .cls-5 {
        fill: #ef7e0b;
      }

      .cls-6 {
        fill: #92c252;
      }

      .cls-7 {
        fill: #59832e;
      }

      .cls-8 {
        fill: #fff;
      }

      .cls-9 {
        fill: #41100f;
      }

      .cls-10 {
        fill: #e84a22;
      }

      .cls-11 {
        fill: #aacc5f;
      }
    </style>
  </defs>
  <path class="cls-2" d="M1002.81,565.51c-12.12-23.95-27.29-44.27-44.93-61.3-7.6-7.8-15.94-15.03-24.99-21.7t0,0s-.01,0-.02-.01c-2.06-1.52-4.19-2.98-6.32-4.43-.86-.59-1.71-1.18-2.58-1.75-2.03-1.34-4.11-2.64-6.21-3.92-1.03-.63-2.07-1.24-3.11-1.86-2.1-1.24-4.22-2.46-6.4-3.63-1.05-.57-2.14-1.12-3.2-1.67-1.71-.89-3.37-1.82-5.12-2.68,1.02-.71,1.99-1.5,3-2.22,1.05-.71,2.1-1.4,3.12-2.15-.03-.03-.06-.06-.09-.1,3.77-2.74,7.58-5.44,11.25-8.34,50.67-39.98,91.41-96.91,97.5-161.17,6.09-64.25-29.75-134.25-91.05-154.44-40.73-13.42-86.54-3.76-123.48,18.03-24.64,14.53-45.77,34.01-64.68,55.59h0s-.03.03-.04.05c-4.45,5.08-8.77,10.29-13,15.57-.44.55-.88,1.09-1.32,1.64-4.26,5.37-8.43,10.81-12.47,16.31-2.81,3.83-5.46,7.77-8.19,11.65.77-57.29-11.89-114.24-43.38-161.59-46.57-70.02-140.29-111.43-218.9-81.55-52.23,19.86-90.66,67.23-110.16,119.59-12.58,33.78-18.11,69.55-19.74,105.67-20.59-17.35-42.83-32.5-67.3-43.66-45.64-20.83-100.1-26.47-145.85-5.89C26.3,216.52-6.85,302.32,8.08,376.32c13.41,66.44,58.61,122.55,113.89,162.51h0s.09.07.14.1c3.02,2.18,6.07,4.33,9.14,6.43,3.28,2.24,6.59,4.43,9.93,6.54.69.43,1.39.84,2.08,1.26-11.92,9.41-23.29,19.44-34.06,30.05-.21.21-.42.41-.63.62-2.42,2.4-4.81,4.83-7.17,7.29-.37.39-.75.77-1.12,1.16-2.21,2.32-4.38,4.67-6.53,7.05-.5.56-1.01,1.12-1.51,1.68-2,2.24-3.98,4.51-5.93,6.8-.63.74-1.25,1.48-1.87,2.22-1.82,2.17-3.61,4.35-5.38,6.56-.72.9-1.44,1.81-2.15,2.73-1.64,2.1-3.28,4.21-4.88,6.34-.8,1.06-1.58,2.14-2.36,3.21-1.49,2.03-2.97,4.07-4.42,6.14-.86,1.22-1.69,2.45-2.53,3.68-1.34,1.96-2.68,3.93-3.98,5.92-.92,1.4-1.8,2.82-2.7,4.24-1.18,1.87-2.37,3.74-3.53,5.63-.97,1.6-1.9,3.22-2.85,4.83-1.03,1.77-2.08,3.53-3.09,5.31-1.03,1.83-2.02,3.69-3.01,5.55-.87,1.62-1.76,3.22-2.61,4.86-1.14,2.2-2.22,4.43-3.31,6.65-.66,1.34-1.35,2.67-1.99,4.02-1.71,3.6-3.36,7.24-4.95,10.92-7.47,17.3-13.6,35.45-18.25,54.44-1.08,4.44-2.07,8.87-3,13.3-.28,1.35-.55,2.69-.82,4.03-.65,3.23-1.26,6.45-1.82,9.67-.24,1.38-.5,2.76-.72,4.13-.7,4.17-1.34,8.34-1.91,12.5-.02.17-.05.35-.08.52,0-.01.01-.02.02-.03-19.36,142.52,33.35,280.82,79.34,414.5,12.27,35.65,24.43,71.35,36.67,107.02,0,0,0,0,0,0,.23.66.45,1.31.68,1.97,7.37,21.48,14.79,42.95,22.26,64.39.06.17.12.33.17.5h0c28.14,80.82,57.23,161.31,89.42,240.62,7.12,17.54,14.85,36.26,23.38,55.29h0c.03.06.05.12.08.18,4.53,10.11,9.29,20.3,14.31,30.47.02.05.05.1.07.15,33.98,68.79,80.03,135.94,148.15,163.48-.08.03-.16.06-.24.09,2.05.83,4.13,1.59,6.21,2.35,1.06.39,2.12.77,3.19,1.14,1.78.61,3.58,1.19,5.38,1.74,1.67.51,3.35.99,5.05,1.45,1.4.39,2.79.78,4.21,1.13,3.24.81,6.51,1.55,9.85,2.17,24.48,4.59,47.23,4.11,68.41-.33,91.81-19.25,154.38-112.88,202.59-190.79,104.91-169.55,183.66-352.24,236.95-543.67,7.61-27.35,14.71-54.87,21.28-82.56,13.68-57.61,31.39-132.27,41.74-209.98,1.06-6.52,2.09-13.06,3.08-19.62,0-.05.02-.11.02-.16,13.83-91.92,18.89-187.32-23.57-271.22Z"/>
  <ellipse class="cls-10" cx="201.64" cy="1070.13" rx="95.11" ry="53.62"/>
  <ellipse class="cls-10" cx="815.09" cy="1070.13" rx="95.11" ry="53.62"/>
  <path class="cls-9" d="M562.84,953.88c-5.6.62-9.64,5.67-9.01,11.27.2,1.79.3,3.59.3,5.38,0,7.9-1.94,15.95-5.52,23.08-3.58,7.14-8.76,13.33-15.08,17.74-7.44,5.21-16.85,8.02-26.17,8.01-8.18,0-16.21-2.14-22.83-6.31-5.86-3.65-11.56-9.85-15.57-17.05-4.04-7.19-6.37-15.3-6.34-22.38,0-2.65.31-5.16.93-7.48,1.44-5.45-1.81-11.03-7.26-12.47-5.45-1.44-11.03,1.81-12.47,7.26h0c-1.1,4.17-1.6,8.44-1.6,12.69.02,11.34,3.45,22.49,8.94,32.35,5.53,9.85,13.18,18.48,22.53,24.37,10.22,6.41,22,9.43,33.69,9.43,13.33-.01,26.68-3.9,37.86-11.69,9.36-6.54,16.65-15.39,21.64-25.33,4.98-9.94,7.68-21.01,7.68-32.22,0-2.56-.14-5.1-.43-7.63-.62-5.6-5.67-9.64-11.27-9.01Z"/>
  <path class="cls-9" d="M912.76,837.56c-2.75-3.6-7.9-4.28-11.5-1.52h0c-8.53,6.56-19.58,10.03-30.63,10.02-.48,0-.95-.08-1.43-.09-2.05-6.44-4.61-12.65-7.6-18.6,12.88-5.37,24.12-14.58,31.63-26.57,2.39-3.84,1.22-8.9-2.63-11.3-3.85-2.39-8.9-1.22-11.3,2.63h0c-5.9,9.55-15.45,16.92-26.14,20.88-5.09-7.47-10.97-14.35-17.49-20.57,7.57-7.85,13.26-17.59,15.8-28.51,1.02-4.41-1.72-8.82-6.14-9.84-4.41-1.02-8.82,1.72-9.84,6.14h0c-1.87,8.09-6.33,15.61-12.42,21.65-21.05-15.43-47-24.56-75.1-24.56-70.25,0-127.19,56.94-127.19,127.19s56.94,127.19,127.19,127.19c30.84,0,59.11-10.98,81.13-29.24,12.45-10.32,22.9-22.96,30.68-37.27,9.81-18.03,15.38-38.71,15.38-60.68,0-7.56-.7-14.95-1.96-22.14,13.56-.5,27.02-4.88,38.04-13.31,3.6-2.75,4.28-7.9,1.52-11.5Z"/>
  <path class="cls-9" d="M268.75,757.32c-28.1,0-54.05,9.13-75.1,24.56-6.09-6.04-10.57-13.56-12.43-21.65-1.03-4.41-5.43-7.16-9.84-6.13-4.41,1.02-7.16,5.43-6.13,9.84h0c2.55,10.92,8.23,20.65,15.81,28.51-6.52,6.21-12.4,13.09-17.49,20.57-10.69-3.96-20.24-11.33-26.15-20.89-2.4-3.84-7.45-5.02-11.3-2.62-3.85,2.4-5.02,7.45-2.62,11.3h0c7.52,11.99,18.76,21.2,31.64,26.57-3,5.95-5.56,12.16-7.6,18.6-.48.01-.96.09-1.44.09-11.05,0-22.1-3.47-30.62-10.02-3.6-2.76-8.75-2.07-11.5,1.52-2.76,3.6-2.08,8.74,1.52,11.5h0c11.02,8.43,24.48,12.8,38.05,13.31-1.26,7.2-1.96,14.59-1.96,22.14,0,21.85,5.51,42.4,15.22,60.36,8.24,15.24,19.51,28.59,32.99,39.29,21.7,17.22,49.13,27.54,78.98,27.54,70.25,0,127.19-56.94,127.19-127.19s-56.94-127.19-127.19-127.19Z"/>
  <path class="cls-9" d="M157.46,1043.46c-3.18-1.21-6.73.39-7.94,3.56l-15.92,41.85c-1.21,3.18.39,6.73,3.56,7.94,3.18,1.21,6.73-.39,7.94-3.56l15.92-41.85c1.21-3.18-.39-6.73-3.57-7.94Z"/>
  <path class="cls-9" d="M193.68,1043.46c-3.18-1.21-6.73.39-7.94,3.56l-15.92,41.85c-1.21,3.18.39,6.73,3.57,7.94,3.18,1.21,6.73-.39,7.94-3.56l15.92-41.85c1.21-3.18-.39-6.73-3.56-7.94Z"/>
  <path class="cls-9" d="M229.89,1043.46c-3.18-1.21-6.73.39-7.94,3.56l-15.92,41.85c-1.21,3.18.39,6.73,3.57,7.94,3.18,1.21,6.73-.39,7.94-3.56l15.92-41.85c1.21-3.18-.39-6.73-3.56-7.94Z"/>
  <path class="cls-9" d="M266.11,1043.46c-3.18-1.21-6.73.39-7.94,3.56l-15.92,41.85c-1.21,3.18.39,6.73,3.56,7.94,3.18,1.21,6.73-.39,7.94-3.56l15.92-41.85c1.21-3.18-.39-6.73-3.57-7.94Z"/>
  <path class="cls-9" d="M770.91,1043.46c-3.18-1.21-6.73.39-7.94,3.56l-15.92,41.85c-1.21,3.18.39,6.73,3.56,7.94,3.18,1.21,6.73-.39,7.94-3.56l15.92-41.85c1.21-3.18-.39-6.73-3.57-7.94Z"/>
  <path class="cls-9" d="M807.13,1043.46c-3.18-1.21-6.73.39-7.94,3.56l-15.92,41.85c-1.21,3.18.39,6.73,3.56,7.94,3.18,1.21,6.73-.39,7.94-3.56l15.92-41.85c1.21-3.18-.39-6.73-3.56-7.94Z"/>
  <path class="cls-9" d="M843.34,1043.46c-3.18-1.21-6.73.39-7.94,3.56l-15.92,41.85c-1.21,3.18.39,6.73,3.57,7.94,3.18,1.21,6.73-.39,7.94-3.56l15.92-41.85c1.21-3.18-.39-6.73-3.56-7.94Z"/>
  <path class="cls-9" d="M879.55,1043.46c-3.18-1.21-6.73.39-7.94,3.56l-15.92,41.85c-1.21,3.18.39,6.73,3.56,7.94,3.18,1.21,6.73-.39,7.94-3.56l15.92-41.85c1.21-3.18-.39-6.73-3.56-7.94Z"/>
  <path class="cls-6" d="M923.66,134.13c-40.73-13.42-86.54-3.76-123.48,18.03-24.64,14.53-45.77,34.01-64.68,55.59h0s-.03.03-.04.05c-4.45,5.08-8.77,10.29-13,15.57-.44.55-.88,1.09-1.32,1.64-4.26,5.37-8.43,10.81-12.47,16.31-2.81,3.83-5.46,7.77-8.19,11.65.77-57.29-11.89-114.24-43.38-161.59-46.57-70.02-140.29-111.43-218.9-81.55-52.23,19.86-90.66,67.23-110.16,119.59-12.58,33.78-18.11,69.55-19.74,105.67-20.59-17.35-42.83-32.5-67.3-43.66-45.64-20.83-100.1-26.47-145.85-5.89C26.3,216.52-6.85,302.32,8.08,376.32c13.41,66.44,58.61,122.55,113.89,162.51h0s.09.07.14.1c3.02,2.18,6.07,4.33,9.14,6.43,3.28,2.24,6.59,4.43,9.93,6.54.69.43,1.39.84,2.08,1.26,0,0,.01,0,.02-.01,19.74-15.58,40.96-29.49,63.23-41.72.1-.06.21-.11.31-.17,10.95-6,22.14-11.59,33.55-16.78.33-.15.67-.3,1-.45,11.29-5.1,22.78-9.8,34.43-14.09.19-.07.38-.15.58-.23.17-.06.34-.12.51-.18,4.76-1.74,9.54-3.43,14.36-5.04,5.83-1.95,11.7-3.78,17.59-5.53.61-.18,1.23-.36,1.85-.54,5.81-1.7,11.64-3.34,17.5-4.85,1.36-.35,2.73-.63,4.1-.97,56.81-14.25,114.57-21.31,172.71-24.79,7.68-.46,15.37-.86,23.07-1.2,43.14-1.93,86.44-2.2,129.67-2.2,30,0,59.95.09,89.8-.18,1.91-.02,3.82-.02,5.73-.04,2.54-.03,5,.02,7.5.03,2.95.01,5.91.02,8.81.09,1.76.04,3.47.12,5.2.18,3.56.12,7.09.27,10.55.48,1.98.12,3.94.26,5.89.4,3.18.23,6.31.5,9.42.81,1.94.19,3.88.37,5.79.59,3.18.36,6.3.77,9.4,1.21,1.68.23,3.39.44,5.04.69,4.46.69,8.85,1.45,13.14,2.29,1.72.34,3.37.73,5.06,1.09,2.67.57,5.34,1.14,7.94,1.77,2.07.5,4.09,1.04,6.12,1.57,2.12.56,4.22,1.13,6.3,1.73,2.13.62,4.24,1.25,6.32,1.91,1.85.58,3.67,1.19,5.49,1.81,2.14.73,4.29,1.46,6.38,2.23,1.54.57,3.04,1.18,4.56,1.78,6.07,2.38,11.99,4.89,17.62,7.64.04.02.08.05.13.07,1.02-.71,1.99-1.5,3-2.22,1.05-.71,2.1-1.4,3.12-2.15-.03-.03-.06-.06-.09-.1,3.77-2.74,7.58-5.44,11.25-8.34,50.67-39.98,91.41-96.91,97.5-161.17,6.09-64.25-29.75-134.25-91.05-154.44Z"/>
  <path class="cls-3" d="M867.81,434.4c-25.88-8.03-53.57-6.91-80.49-10.02-4.56-.53-9.16-1.29-13.74-2.18-4.24,4.06-8.51,8.06-12.81,12.01,2.95.01,5.91.02,8.81.09,1.76.04,3.47.12,5.2.18,3.56.12,7.09.27,10.55.48,1.98.12,3.94.26,5.89.4,3.18.23,6.31.5,9.42.81,1.94.19,3.88.37,5.79.59,3.18.36,6.3.77,9.4,1.21,1.68.23,3.39.44,5.04.69,4.46.69,8.85,1.45,13.14,2.29,1.72.34,3.37.73,5.06,1.09,2.67.57,5.34,1.14,7.94,1.77,2.07.5,4.09,1.04,6.12,1.57,2.12.56,4.22,1.13,6.3,1.73,2.13.62,4.24,1.25,6.32,1.91,1.85.58,3.67,1.19,5.49,1.81,2.14.73,4.29,1.46,6.38,2.23,1.54.57,3.04,1.18,4.56,1.78,6.07,2.38,11.99,4.89,17.62,7.64,1.04-.73,2.08-1.45,3.13-2.16,1.05-.71,2.1-1.4,3.12-2.15-.03-.03-.06-.06-.09-.1-9.96-11.01-23.87-19.24-38.15-23.67Z"/>
  <path class="cls-3" d="M657.74,434.41c30,0,59.95.09,89.8-.18,3.13-5.39,6.32-10.76,9.61-16.11-16.32-5.24-31.2-13.77-41.25-27.41-19.72-26.8-14.64-64.29-4.12-95.86,9.54-28.66,22.94-57.23,23.72-87.1h0s-.03.03-.04.05c-4.45,5.08-8.77,10.29-13,15.57-.44.55-.88,1.09-1.32,1.64-4.26,5.37-8.43,10.81-12.47,16.31-2.81,3.83-5.46,7.77-8.19,11.65-.37,27.44-3.79,54.96-9.76,81.53-7.73,34.35-19.28,67.51-32.97,99.92Z"/>
  <path class="cls-11" d="M917.19,235.87c-8.09,15.95-17.28,31.77-27.28,47.37,11.33-3.41,21.16-4.18,34.02-4.43,2.73-.05,3.55,3.72,1.02,4.79-11.55,4.89-22.29,8.51-34.03,11.19,9.07,23.5,28.41,39.78,50.88,39.78,31.15,0,56.41-31.23,56.41-69.75s-25.26-69.75-56.41-69.75-53.92,28.31-56.19,64.26c9.17-8.8,18.51-17.4,28.04-25.72,2.45-2.13,4.94-.52,3.54,2.25Z"/>
  <path class="cls-7" d="M795.98,400.04c30.54.37,54.05-3.27,81.35-11,2.76-.78,2.46-4.78-.38-5.15-25.73-3.31-42.62-4.69-66.79,1.21,25.92-27.92,49.98-57.61,70.82-88.31,3.42-.6,6.72-1.27,9.95-2.01,11.74-2.68,22.48-6.3,34.03-11.19,2.52-1.07,1.71-4.84-1.02-4.79-12.86.26-22.68,1.03-34.02,4.43,10.01-15.61,19.2-31.43,27.28-47.37,1.41-2.77-1.09-4.39-3.54-2.25-9.54,8.32-18.87,16.91-28.04,25.72-4.38,4.2-8.71,8.46-12.99,12.77-2.02-11.97-5.81-21.17-11.45-32.99-1.18-2.48-4.91-1.5-4.73,1.24.95,14.57,2.95,27.4,6.83,41.25-26.23,27.21-50.55,56.27-72.55,86.52-.39-23.44-5.69-39.24-14.72-62.61-1.03-2.68-4.99-2.02-5.09.85-.97,27.33.97,50.38,7.96,78.49-7.55,10.96-14.82,22.05-21.71,33.26-3.29,5.34-6.48,10.72-9.61,16.11,1.91-.02,3.82-.02,5.73-.04,2.54-.03,5,.02,7.5.03,4.3-3.95,8.56-7.95,12.81-12.01,7.57-7.24,15.05-14.62,22.4-22.16Z"/>
  <path class="cls-3" d="M206.51,511.43c.1-.06.21-.11.31-.17,10.95-6,22.14-11.59,33.55-16.78.33-.15.67-.3,1-.45,11.29-5.1,22.78-9.8,34.43-14.09.19-.07.38-.15.58-.23-2.49-2.37-4.98-4.76-7.45-7.17-6.38,2.32-13.22,3.63-19.89,5.08-46.37,10.09-90.13,31.44-127.07,61.21h0s.09.07.14.1c3.02,2.18,6.07,4.33,9.14,6.43,3.28,2.24,6.59,4.43,9.93,6.54.69.43,1.4.82,2.09,1.25,19.74-15.58,40.96-29.49,63.23-41.72Z"/>
  <path class="cls-3" d="M308.28,235.34c-4.12-3.47-8.24-6.93-12.5-10.21-1.8,56.77-.82,113.62,3,170.29.88,13.11,1.91,26.38-.48,39.3-1.96,10.58-6.58,20.99-14.15,28.45,2.4,3.76,4.78,7.52,7.11,11.31,5.83-1.95,11.7-3.78,17.59-5.53.61-.18,1.23-.36,1.85-.54,5.81-1.7,11.64-3.34,17.5-4.85,1.36-.35,2.73-.63,4.1-.97-12.99-55.07-20.97-111.33-23.68-167.85-.95-19.73-1.21-39.62-.33-59.41Z"/>
  <path class="cls-11" d="M566.74,143.5c3.66-3.19,9.06,1.02,6.84,5.35-7.8,15.22-15.83,28.87-24.97,42.11,21.37,31.66,55.86,46.76,82.73,34.13,30.83-14.5,39.94-59.99,20.37-101.61-19.57-41.62-60.43-63.62-91.25-49.13-29.7,13.96-39.16,56.69-22.32,97.02,8.24-9.59,17.43-18.13,28.6-27.87Z"/>
  <path class="cls-11" d="M645.98,234.75c0,9.43,7.65,17.07,17.08,17.07s17.07-7.65,17.07-17.07-7.64-17.08-17.07-17.08-17.08,7.64-17.08,17.08Z"/>
  <path class="cls-11" d="M436.06,160.93c4.64,2.12,9,4.17,13.18,6.23,5.02-4.91,8.15-11.74,8.15-19.31,0-14.93-12.1-27.04-27.03-27.04s-27.03,12.1-27.03,27.04,12.1,27.03,27.03,27.03c2.27,0,4.43-.36,6.54-.89-1.96-1.98-3.91-3.92-5.87-5.98-3.36-3.52.6-9.11,5.03-7.08Z"/>
  <path class="cls-7" d="M622.49,270.5c2.71-3.98-1.97-8.8-6.03-6.21-33.27,21.26-55.45,36.76-77.75,64.54,1.11-38.99-.87-78.06-6.3-116.39,5.84-7.15,11.21-14.27,16.19-21.49,9.14-13.24,17.17-26.88,24.97-42.11,2.22-4.33-3.18-8.54-6.84-5.35-11.17,9.74-20.36,18.28-28.6,27.87-3.57,4.15-6.97,8.5-10.26,13.23-5.92-31.33-14.29-62-25.4-91.52-1.56-4.14-7.58-3.77-8.48.56-6.33,30.52-10.66,61.44-13.04,92.52-9.98-7.49-20.08-13.27-31.72-19-4.18-2.06-8.54-4.11-13.18-6.23-4.43-2.02-8.39,3.56-5.03,7.08,1.96,2.06,3.91,4,5.87,5.98,13.6,13.76,27.16,25.69,42.57,36.91-1.73,40.32-.12,80.78,4.71,120.84-24.06-26.41-47.2-40.49-81.81-59.64-4.21-2.33-8.58,2.78-5.62,6.57,27.82,35.75,54.65,63.06,93.11,91.33,3.98,22.83,9.03,45.46,15.15,67.8,7.68-.46,15.37-.86,23.07-1.2,3.87-23.13,6.77-46.58,8.6-70.18,35.88-30.24,60.62-58.93,85.82-95.92Z"/>
  <path class="cls-11" d="M122.93,339.1c-2.52-1.07-1.71-4.84,1.02-4.79,12.86.26,22.68,1.03,34.02,4.44-10.01-15.61-19.2-31.43-27.28-47.38-1.41-2.77,1.09-4.38,3.54-2.25,14.09,12.29,27.77,25.16,41.04,38.48.89-5.25,2.12-9.98,3.7-14.62-.67-40.55-30.59-73.21-67.47-73.21s-67.52,33.39-67.52,74.59,30.23,74.59,67.52,74.59c23.93,0,44.9-13.78,56.89-34.51-.49-.71-.99-1.42-1.47-2.13-15.87-2.76-29.26-6.97-43.98-13.2Z"/>
  <circle class="cls-11" cx="70.45" cy="416.54" r="19.71"/>
  <path class="cls-7" d="M269.02,440.37c6.98-28.11,8.93-51.16,7.96-78.49-.1-2.87-4.06-3.53-5.09-.86-9.03,23.36-14.33,39.17-14.72,62.61-22-30.25-46.33-59.31-72.55-86.52,3.88-13.85,5.88-26.69,6.83-41.25.18-2.74-3.55-3.72-4.73-1.24-3.16,6.63-5.74,12.44-7.75,18.37-1.58,4.64-2.81,9.37-3.7,14.62-13.26-13.32-26.95-26.19-41.04-38.48-2.45-2.13-4.94-.52-3.54,2.25,8.09,15.95,17.28,31.77,27.28,47.38-11.33-3.41-21.16-4.18-34.02-4.44-2.73-.05-3.55,3.72-1.02,4.79,14.72,6.23,28.12,10.44,43.98,13.2.48.71.99,1.42,1.47,2.13,20.5,29.94,44.03,58.9,69.34,86.17-24.16-5.9-41.05-4.53-66.79-1.21-2.84.37-3.14,4.36-.38,5.15,27.3,7.74,50.8,11.37,81.34,11,5.61,5.76,11.29,11.42,17.03,17,2.47,2.4,4.95,4.8,7.45,7.17.17-.06.34-.12.51-.18,4.76-1.74,9.54-3.43,14.36-5.04-2.32-3.79-4.71-7.55-7.11-11.31-4.89-7.66-9.93-15.27-15.13-22.81Z"/>
  <path class="cls-11" d="M951.82,345.28c-7.35,0-13.31,5.96-13.31,13.31s5.96,13.31,13.31,13.31,13.31-5.96,13.31-13.31-5.96-13.31-13.31-13.31Z"/>
  <path class="cls-1" d="M156.79,944.87c-1.24-.05-2.49-.1-3.76-.1-26.49,0-47.97,10.74-47.97,23.98s21.48,23.98,47.97,23.98c14.76,0,27.95-3.34,36.75-8.58-13.48-10.7-24.75-24.04-32.99-39.29Z"/>
  <path class="cls-1" d="M868.44,944.78c-2.96,0-5.85.15-8.67.41-7.78,14.31-18.23,26.95-30.68,37.27,8.67,6.21,23.04,10.28,39.34,10.28,26.49,0,47.96-10.74,47.96-23.98s-21.47-23.98-47.96-23.98Z"/>
  <path class="cls-8" d="M837.99,879.62c-39.03-13.5-70.27-43.66-85.28-81.96-1.7-4.35-7.78-4.35-9.48,0-15,38.31-46.25,68.46-85.28,81.96-4.62,1.6-4.62,8.16,0,9.77,39.03,13.5,70.28,43.66,85.28,81.96,1.7,4.35,7.77,4.35,9.48,0,15-38.31,46.25-68.46,85.28-81.96,4.63-1.6,4.63-8.17,0-9.77Z"/>
  <path class="cls-8" d="M696.99,940.43c-7.87,0-14.26,6.38-14.26,14.26s6.38,14.25,14.26,14.25,14.25-6.38,14.25-14.25-6.38-14.26-14.25-14.26Z"/>
  <path class="cls-8" d="M686.7,836.96c10.13,0,18.35-8.21,18.35-18.35s-8.21-18.35-18.35-18.35-18.35,8.21-18.35,18.35,8.21,18.35,18.35,18.35Z"/>
  <path class="cls-8" d="M819.17,922.87c-4.1,0-7.42,3.32-7.42,7.42s3.32,7.42,7.42,7.42,7.41-3.32,7.41-7.42-3.32-7.42-7.41-7.42Z"/>
  <path class="cls-8" d="M358.77,879.62c-39.03-13.5-70.28-43.66-85.28-81.96-1.71-4.35-7.77-4.35-9.48,0-15,38.31-46.25,68.46-85.28,81.96-4.63,1.6-4.63,8.16,0,9.77,39.03,13.5,70.27,43.66,85.28,81.96,1.71,4.35,7.77,4.35,9.48,0,15-38.31,46.25-68.46,85.28-81.96,4.62-1.6,4.62-8.17,0-9.77Z"/>
  <path class="cls-8" d="M319.73,940.43c-7.87,0-14.26,6.38-14.26,14.26s6.38,14.25,14.26,14.25,14.26-6.38,14.26-14.25-6.38-14.26-14.26-14.26Z"/>
  <path class="cls-8" d="M330.02,836.96c10.13,0,18.35-8.21,18.35-18.35s-8.21-18.35-18.35-18.35-18.35,8.21-18.35,18.35,8.21,18.35,18.35,18.35Z"/>
  <path class="cls-8" d="M197.55,922.87c-4.1,0-7.41,3.32-7.41,7.42s3.32,7.42,7.41,7.42,7.42-3.32,7.42-7.42-3.32-7.42-7.42-7.42Z"/>
  <path class="cls-5" d="M1035.6,697.88c-29.59,153.93-70.36,305.71-121.82,453.76-41.26,13.04-84.49,19.84-127.76,19.68-8.49-.03-17.37-.24-24.98,3.52-7.62,3.76-13.31,12.98-10.06,20.81,3.01,7.24,11.68,9.96,19.33,11.63,39.23,8.58,79.57,11.91,119.69,10.24-30.37,81.64-64.02,162.04-100.89,240.96-37.11,4.92-75.46,7.48-113.86,7.41-8.91-.02-18.22-.13-26.21,1.85-8,1.97-13.97,6.82-10.55,10.94,3.16,3.81,12.26,5.23,20.29,6.11,37.82,4.14,76.62,5.98,115.32,5.57-42.23,87.8-89.43,174.29-154.55,246.68-54.76,60.86-123.6,111.42-200.89,136.71-.08.03-.16.06-.24.09,2.05.83,4.13,1.59,6.21,2.35,1.06.39,2.12.77,3.19,1.14,1.78.61,3.58,1.19,5.38,1.74,1.67.51,3.35.99,5.05,1.45,1.4.39,2.79.78,4.21,1.13,3.24.81,6.51,1.55,9.85,2.17,24.48,4.59,47.23,4.11,68.41-.33,91.81-19.25,154.38-112.88,202.59-190.79,104.91-169.55,183.66-352.24,236.95-543.67,7.61-27.35,14.71-54.87,21.28-82.56,13.68-57.61,31.39-132.27,41.74-209.98,1.06-6.52,2.09-13.06,3.08-19.62,0-.05.02-.11.02-.16,6.91-46.04,11.56-92.94,9.22-138.85Z"/>
  <path class="cls-5" d="M108.5,662.1c44.27-.92,88.68-5.47,131.59-13.67,7.82-1.49,16.65-3.7,19.49-8.4,3.08-5.09-3.11-10.51-11.09-12.41-7.97-1.9-17.11-1.25-25.85-.73-23.63,1.4-47.28,1.42-70.72.42,69.14-49.93,149.37-85.57,230.72-112.67,176.87-58.92,371.28-81.57,550.26-32.14t0,0s-.01,0-.02-.01c-2.06-1.52-4.19-2.98-6.32-4.43-.86-.59-1.71-1.18-2.58-1.75-2.03-1.34-4.11-2.64-6.21-3.92-1.03-.63-2.07-1.24-3.11-1.86-2.1-1.24-4.22-2.46-6.4-3.63-1.05-.57-2.14-1.12-3.2-1.67-7.24-3.78-14.87-7.24-22.88-10.38-1.52-.6-3.02-1.21-4.56-1.78-2.09-.77-4.24-1.5-6.38-2.23-1.81-.62-3.64-1.23-5.49-1.81-2.08-.66-4.19-1.29-6.32-1.91-2.07-.6-4.18-1.17-6.3-1.73-2.03-.53-4.05-1.08-6.12-1.57-2.6-.63-5.27-1.2-7.94-1.77-1.69-.36-3.34-.76-5.06-1.09-4.29-.84-8.68-1.6-13.14-2.29-1.65-.25-3.36-.46-5.04-.69-3.1-.43-6.21-.85-9.4-1.21-1.91-.22-3.85-.4-5.79-.59-3.1-.3-6.24-.57-9.42-.81-1.95-.14-3.91-.28-5.89-.4-3.47-.2-7-.35-10.55-.48-1.73-.06-3.44-.14-5.2-.18-2.89-.07-5.86-.07-8.81-.09-2.5-.01-4.96-.06-7.5-.03-1.91.02-3.82.02-5.73.04-29.85.27-59.8.18-89.8.18-43.23,0-86.53.27-129.67,2.2-7.7.34-15.39.74-23.07,1.2-58.14,3.48-115.9,10.55-172.71,24.79-1.36.34-2.73.62-4.1.97-5.86,1.51-11.69,3.15-17.5,4.85-.62.18-1.23.36-1.85.54-5.89,1.75-11.76,3.58-17.59,5.53-4.81,1.61-9.59,3.3-14.36,5.04-.37.13-.73.27-1.09.4-11.65,4.29-23.14,8.99-34.43,14.09-.33.15-.67.3-1,.45-11.41,5.18-22.6,10.77-33.55,16.78-.1.06-.21.11-.31.17-22.27,12.23-43.49,26.14-63.23,41.72,0,0-.01,0-.02.01-11.92,9.41-23.29,19.44-34.06,30.05-.21.21-.42.41-.63.62-2.42,2.4-4.81,4.83-7.17,7.29-.37.39-.75.77-1.12,1.16-2.21,2.32-4.38,4.67-6.53,7.05-.5.56-1.01,1.12-1.51,1.68-2,2.24-3.98,4.51-5.93,6.8-.63.74-1.25,1.48-1.87,2.22-1.82,2.17-3.61,4.35-5.38,6.56-.72.9-1.44,1.81-2.15,2.73-1.64,2.1-3.28,4.21-4.88,6.34-.8,1.06-1.58,2.14-2.36,3.21-1.49,2.03-2.97,4.07-4.42,6.14-.86,1.22-1.69,2.45-2.53,3.68-1.34,1.96-2.68,3.93-3.98,5.92-.92,1.4-1.8,2.82-2.7,4.24-1.18,1.87-2.37,3.74-3.53,5.63-.97,1.6-1.9,3.22-2.85,4.83-1.03,1.77-2.08,3.53-3.09,5.31-1.03,1.83-2.02,3.69-3.01,5.55-.87,1.62-1.76,3.22-2.61,4.86-1.14,2.2-2.22,4.43-3.31,6.65-.66,1.34-1.35,2.67-1.99,4.02-1.71,3.6-3.36,7.24-4.95,10.92-7.47,17.3-13.6,35.45-18.25,54.44-1.08,4.44-2.07,8.87-3,13.3-.28,1.35-.55,2.69-.82,4.03-.65,3.23-1.26,6.45-1.82,9.67-.24,1.38-.5,2.76-.72,4.13-.7,4.17-1.34,8.34-1.91,12.5-.02.17-.05.35-.08.52,0-.01.01-.02.02-.03,16.94-33.56,38.43-64.94,63.35-92.66,12.9-14.35,26.67-27.74,41.03-40.45Z"/>
  <path class="cls-5" d="M267.27,1373.5c7.65-1.67,16.32-4.4,19.33-11.64,3.26-7.84-2.43-17.06-10.05-20.81-7.61-3.76-16.49-3.55-24.98-3.52-44.56.16-89.08-7.01-131.44-20.82,0,0,0,0,0,0,.23.66.45,1.31.68,1.97,7.37,21.48,14.79,42.95,22.26,64.39.06.17.12.33.17.5h0c41.55,2.11,83.38-1.19,124.03-10.08Z"/>
  <path class="cls-4" d="M387.45,1687.64c8,1.97,13.97,6.82,10.55,10.94-3.16,3.8-12.26,5.23-20.29,6.11-21.91,2.4-44.17,3.93-66.54,4.78.11.23.2.47.31.71,34.45,74.86,102,117.32,150.88,94.82,48.87-22.49,60.57-101.42,26.11-176.28-34.45-74.86-102-117.32-150.88-94.82-43.13,19.85-57.28,83.64-36.34,149.81,19.87,1.36,39.91,2.11,59.97,2.08,8.92-.02,18.23-.13,26.22,1.85Z"/>
  <circle class="cls-4" cx="286.66" cy="1454.91" r="53.15"/>
  <path class="cls-4" d="M396.96,1464.15c-6.94,0-12.56,5.62-12.56,12.56s5.62,12.56,12.56,12.56,12.56-5.62,12.56-12.56-5.62-12.56-12.56-12.56Z"/>
  <path class="cls-5" d="M377.72,1704.69c8.03-.88,17.13-2.31,20.29-6.11,3.42-4.12-2.55-8.97-10.55-10.94-7.99-1.97-17.3-1.87-26.22-1.85-20.06.04-40.1-.72-59.97-2.08-15.2-1.04-30.31-2.4-45.22-4.21h0c.03.06.05.12.08.18,4.53,10.11,9.3,20.3,14.31,30.47.02.05.05.1.07.15,13.58.03,27.14-.3,40.67-.82,22.36-.86,44.62-2.38,66.54-4.78Z"/>
  <path class="cls-4" d="M822.92,542.58c-4.34-4.33,1.95-10.49,10.86-13.6,8.9-3.1,19.53-3.98,29.69-4.91,11.25-1.03,22.47-2.34,33.66-3.77-13.17-22.57-37.59-37.78-65.61-37.78-41.96,0-75.99,34.02-75.99,75.98s34.02,75.98,75.99,75.98,75.98-34.02,75.98-75.98c0-4.1-.41-8.09-1.04-12.01-20.02.81-39.99,1.19-59.76.88-9.25-.14-19.77-.8-23.78-4.8Z"/>
  <path class="cls-5" d="M897.12,520.3c-11.19,1.43-22.4,2.73-33.66,3.77-10.16.93-20.79,1.8-29.69,4.91-8.9,3.1-15.19,9.27-10.86,13.6,4.01,4,14.53,4.66,23.78,4.8,19.78.31,39.75-.07,59.76-.88,27.19-1.1,54.49-3.08,81.64-6.14-7.51-11.19-15.81-21.39-24.8-30.7-21.76,4.28-43.89,7.8-66.18,10.64Z"/>
  <path class="cls-4" d="M952.96,578.16c-11.71,0-21.21,9.49-21.21,21.2s9.49,21.21,21.21,21.21,21.21-9.49,21.21-21.21-9.49-21.2-21.21-21.2Z"/>
</svg>